<?xml version="1.0" standalone="no"?>
<!DOCTYPE svg PUBLIC "-//W3C//DTD SVG 1.1//EN" "http://www.w3.org/Graphics/SVG/1.1/DTD/svg11.dtd">
<svg width="1200px" height="800px" viewBox="0 0 1200 800" version="1.1" xmlns="http://www.w3.org/2000/svg" xmlns:xlink= "http://www.w3.org/1999/xlink">
  <style>
  * {
    fill: none;
    stroke: black;
    stroke-width: 3;
  }
  .empty {
    fill: none;
    stroke: blue;
    stroke-width: 2;
  }
  .knot {
    fill: blue;
    stroke: blue;
  }
  .control {
    fill: green;
    stroke: green;
  }
  </style>
  <rect x="20" y="20" width="1160" height="760" class="empty"/>
<path d=" M 200 200 C 259 254, 318 309, 350 344 "/>
<path d=" M 350 344 C 381 378, 385 393, 388 431 "/>
<path d=" M 388 431 C 390 468, 391 528, 460 527 "/>
<path d=" M 460 527 C 528 525, 664 462, 800 400 "/>
<circle cx="200" cy="200" r="4" class="knot"/>
<circle cx="350" cy="344" r="4" class="knot"/>
<circle cx="388" cy="431" r="4" class="knot"/>
<circle cx="460" cy="527" r="4" class="knot"/>
<circle cx="800" cy="400" r="4" class="knot"/>
<circle cx="259" cy="254" r="4" class="control"/>
<circle cx="318" cy="309" r="4" class="control"/>
<circle cx="381" cy="378" r="4" class="control"/>
<circle cx="385" cy="393" r="4" class="control"/>
<circle cx="390" cy="468" r="4" class="control"/>
<circle cx="391" cy="528" r="4" class="control"/>
<circle cx="528" cy="525" r="4" class="control"/>
<circle cx="664" cy="462" r="4" class="control"/>
</svg>
